<svg width="86" height="86" viewBox="0 0 86 86" fill="none" xmlns="http://www.w3.org/2000/svg">
<path fill-rule="evenodd" clip-rule="evenodd" d="M0 24C0 10.7451 10.7452 0 24 0H62C75.2548 0 86 10.7451 86 24V62C86 75.2549 75.2548 86 62 86H24C10.7452 86 0 75.2549 0 62V24Z" fill="#FF9E43"/>
<path fill-rule="evenodd" clip-rule="evenodd" d="M61.8107 66.7317L19.978 24.8989L25.6084 19.2685L67.4412 61.1013L61.8107 66.7317Z" fill="#001871"/>
<path fill-rule="evenodd" clip-rule="evenodd" d="M39.7294 72.5804L39.7294 13.4199L47.6921 13.4199V72.5804H39.7294Z" fill="#001871"/>
<path fill-rule="evenodd" clip-rule="evenodd" d="M19.9796 61.1013L61.8123 19.2685L67.4428 24.8989L25.61 66.7317L19.9796 61.1013Z" fill="#001871"/>
<path d="M14.1294 38.9678H24.6344L28.6154 43.0008L24.6344 47.0338H14.1294V38.9678Z" fill="#001871"/>
<path d="M71.8711 47.034H61.3661L57.3851 43.001L61.3661 38.968L71.8711 38.968V47.034Z" fill="#001871"/>
<path d="M35.3234 65.6514H52.0979V72.5804H35.3234V65.6514Z" fill="#001871"/>
<rect x="35.3228" y="13.4194" width="16.7745" height="6.92902" fill="#001871"/>
</svg>
